<svg width="150" height="54" viewBox="0 0 150 54" fill="none" xmlns="http://www.w3.org/2000/svg">
<rect x="1" y="1" width="148" height="52" rx="4" fill="#172531"/>
<rect x="0.5" y="0.5" width="149" height="53" rx="4.5" stroke="url(#paint0_linear_351_23547)" stroke-opacity="0.08"/>
<path d="M34.1754 25.7792C34.2006 23.8281 35.2484 21.9818 36.9107 20.9599C35.862 19.4622 34.1056 18.5126 32.2781 18.4554C30.329 18.2509 28.4394 19.6218 27.4462 19.6218C26.4337 19.6218 24.9045 18.4758 23.2578 18.5096C21.1113 18.579 19.1103 19.7993 18.066 21.6759C15.8212 25.5625 17.4956 31.2744 19.646 34.416C20.7218 35.9543 21.9792 37.6727 23.6244 37.6118C25.2344 37.545 25.8357 36.5851 27.7791 36.5851C29.7044 36.5851 30.2686 37.6118 31.9472 37.573C33.6748 37.545 34.7633 36.0278 35.8014 34.4749C36.5744 33.3788 37.1692 32.1673 37.5638 30.8854C35.5336 30.0267 34.1778 27.9836 34.1754 25.7792Z" fill="white"/>
<path d="M31.0047 16.3894C31.9467 15.2586 32.4108 13.8052 32.2984 12.3378C30.8593 12.4889 29.53 13.1767 28.5753 14.2641C27.6418 15.3265 27.1559 16.7544 27.2478 18.1657C28.6874 18.1805 30.1026 17.5114 31.0047 16.3894Z" fill="white"/>
<path d="M46.8066 12.3268V19.2783H49.3165C51.388 19.2783 52.5875 18.0017 52.5875 15.7809C52.5875 13.5938 51.3784 12.3268 49.3165 12.3268H46.8066ZM47.8857 13.3095H49.1961C50.6365 13.3095 51.4892 14.2248 51.4892 15.7953C51.4892 17.3899 50.6509 18.2955 49.1961 18.2955H47.8857V13.3095Z" fill="white"/>
<path d="M56.2613 19.3795C57.7932 19.3795 58.7326 18.3534 58.7326 16.6528C58.7326 14.9619 57.7884 13.931 56.2613 13.931C54.7294 13.931 53.7851 14.9619 53.7851 16.6528C53.7851 18.3534 54.7245 19.3795 56.2613 19.3795ZM56.2613 18.4593C55.3604 18.4593 54.8546 17.7994 54.8546 16.6528C54.8546 15.5159 55.3604 14.8511 56.2613 14.8511C57.1573 14.8511 57.668 15.5159 57.668 16.6528C57.668 17.7945 57.1573 18.4593 56.2613 18.4593Z" fill="white"/>
<path d="M66.7324 14.0321H65.6967L64.7621 18.0354H64.6802L63.6011 14.0321H62.6087L61.5296 18.0354H61.4525L60.5131 14.0321H59.4629L60.9082 19.2783H61.9728L63.0519 15.4147H63.1338L64.2177 19.2783H65.292L66.7324 14.0321Z" fill="white"/>
<path d="M67.9252 19.2783H68.9609V16.2096C68.9609 15.3906 69.4475 14.88 70.2135 14.88C70.9794 14.88 71.3456 15.2991 71.3456 16.1422V19.2783H72.3813V15.882C72.3813 14.6343 71.7358 13.931 70.5651 13.931C69.7751 13.931 69.2548 14.2826 68.9995 14.8656H68.9224V14.0321H67.9252V19.2783Z" fill="white"/>
<path d="M74.0125 19.2783H75.0482V11.9847H74.0125V19.2783Z" fill="white"/>
<path d="M78.9436 19.3795C80.4755 19.3795 81.4149 18.3534 81.4149 16.6528C81.4149 14.9619 80.4707 13.931 78.9436 13.931C77.4116 13.931 76.4674 14.9619 76.4674 16.6528C76.4674 18.3534 77.4068 19.3795 78.9436 19.3795ZM78.9436 18.4593C78.0427 18.4593 77.5369 17.7994 77.5369 16.6528C77.5369 15.5159 78.0427 14.8511 78.9436 14.8511C79.8396 14.8511 80.3503 15.5159 80.3503 16.6528C80.3503 17.7945 79.8396 18.4593 78.9436 18.4593Z" fill="white"/>
<path d="M84.5009 18.4931C83.9373 18.4931 83.5278 18.2185 83.5278 17.7464C83.5278 17.2839 83.8554 17.0382 84.578 16.99L85.8594 16.9081V17.3465C85.8594 17.9969 85.2814 18.4931 84.5009 18.4931ZM84.236 19.365C84.9249 19.365 85.4981 19.0663 85.8113 18.5412H85.8932V19.2783H86.8904V15.6941C86.8904 14.5861 86.1485 13.931 84.8333 13.931C83.6434 13.931 82.7956 14.5091 82.6896 15.4099H83.6916C83.8072 15.039 84.2071 14.827 84.7852 14.827C85.4933 14.827 85.8594 15.1401 85.8594 15.6941V16.147L84.4383 16.2289C83.1906 16.306 82.4873 16.8503 82.4873 17.7945C82.4873 18.7532 83.2243 19.365 84.236 19.365Z" fill="white"/>
<path d="M90.4052 19.365C91.1278 19.365 91.7396 19.023 92.0527 18.4497H92.1346V19.2783H93.127V11.9847H92.0912V14.8656H92.0142C91.7299 14.2875 91.1229 13.9454 90.4052 13.9454C89.0804 13.9454 88.2277 14.9956 88.2277 16.6528C88.2277 18.3148 89.0707 19.365 90.4052 19.365ZM90.699 14.8752C91.5661 14.8752 92.1105 15.5641 92.1105 16.6576C92.1105 17.756 91.571 18.4353 90.699 18.4353C89.8222 18.4353 89.2971 17.7656 89.2971 16.6528C89.2971 15.5496 89.8271 14.8752 90.699 14.8752Z" fill="white"/>
<path d="M99.8434 19.3795C101.375 19.3795 102.315 18.3534 102.315 16.6528C102.315 14.9619 101.371 13.931 99.8434 13.931C98.3115 13.931 97.3673 14.9619 97.3673 16.6528C97.3673 18.3534 98.3067 19.3795 99.8434 19.3795ZM99.8434 18.4593C98.9426 18.4593 98.4367 17.7994 98.4367 16.6528C98.4367 15.5159 98.9426 14.8511 99.8434 14.8511C100.739 14.8511 101.25 15.5159 101.25 16.6528C101.25 17.7945 100.739 18.4593 99.8434 18.4593Z" fill="white"/>
<path d="M103.686 19.2783H104.722V16.2096C104.722 15.3906 105.208 14.88 105.974 14.88C106.74 14.88 107.106 15.2991 107.106 16.1422V19.2783H108.142V15.882C108.142 14.6343 107.496 13.931 106.326 13.931C105.536 13.931 105.015 14.2826 104.76 14.8656H104.683V14.0321H103.686V19.2783Z" fill="white"/>
<path d="M112.912 12.7266V14.0562H112.079V14.9282H112.912V17.8909C112.912 18.9025 113.37 19.3072 114.521 19.3072C114.723 19.3072 114.916 19.2831 115.085 19.2542V18.3919C114.94 18.4063 114.849 18.416 114.69 18.416C114.174 18.416 113.948 18.1751 113.948 17.6259V14.9282H115.085V14.0562H113.948V12.7266H112.912Z" fill="white"/>
<path d="M116.475 19.2783H117.511V16.2144C117.511 15.4196 117.983 14.8848 118.831 14.8848C119.563 14.8848 119.953 15.3088 119.953 16.147V19.2783H120.989V15.8917C120.989 14.644 120.3 13.9358 119.182 13.9358C118.392 13.9358 117.838 14.2875 117.583 14.8752H117.501V11.9847H116.475V19.2783Z" fill="white"/>
<path d="M124.725 14.8126C125.491 14.8126 125.992 15.3473 126.016 16.1711H123.367C123.425 15.3521 123.959 14.8126 124.725 14.8126ZM126.012 17.862C125.819 18.2715 125.39 18.4979 124.764 18.4979C123.935 18.4979 123.401 17.915 123.367 16.9948V16.937H127.071V16.5757C127.071 14.9282 126.19 13.931 124.73 13.931C123.251 13.931 122.312 14.9956 122.312 16.6721C122.312 18.3485 123.232 19.3795 124.735 19.3795C125.935 19.3795 126.773 18.8014 127.009 17.862H126.012Z" fill="white"/>
<path d="M100.054 24.5026V27.1618H98.387V28.9057H100.054V34.8311C100.054 36.8544 100.969 37.6637 103.272 37.6637C103.677 37.6637 104.062 37.6156 104.399 37.5578V35.8331C104.11 35.862 103.927 35.8813 103.609 35.8813C102.578 35.8813 102.125 35.3996 102.125 34.3012V28.9057H104.399V27.1618H102.125V24.5026H100.054Z" fill="white"/>
<path d="M110.265 37.8083C113.329 37.8083 115.208 35.756 115.208 32.355C115.208 28.9731 113.319 26.9113 110.265 26.9113C107.201 26.9113 105.313 28.9731 105.313 32.355C105.313 35.756 107.192 37.8083 110.265 37.8083ZM110.265 35.968C108.464 35.968 107.452 34.648 107.452 32.355C107.452 30.0811 108.464 28.7515 110.265 28.7515C112.057 28.7515 113.079 30.0811 113.079 32.355C113.079 34.6384 112.057 35.968 110.265 35.968Z" fill="white"/>
<path d="M116.815 37.6059H118.887V31.4107C118.887 29.9366 119.995 28.9442 121.565 28.9442C121.931 28.9442 122.548 29.0117 122.722 29.0695V27.0269C122.5 26.9691 122.105 26.9402 121.797 26.9402C120.428 26.9402 119.263 27.6917 118.964 28.7226H118.81V27.1136H116.815V37.6059Z" fill="white"/>
<path d="M127.865 28.6744C129.397 28.6744 130.399 29.7439 130.447 31.3915H125.148C125.264 29.7535 126.333 28.6744 127.865 28.6744ZM130.437 34.7733C130.052 35.5922 129.195 36.0451 127.942 36.0451C126.285 36.0451 125.215 34.8793 125.148 33.039V32.9234H132.557V32.2008C132.557 28.9057 130.794 26.9113 127.875 26.9113C124.917 26.9113 123.038 29.0406 123.038 32.3935C123.038 35.7464 124.878 37.8083 127.884 37.8083C130.283 37.8083 131.96 36.6521 132.432 34.7733H130.437Z" fill="white"/>
<path d="M86.4694 33.7313C86.6291 36.3077 88.7762 37.9554 91.9718 37.9554C95.3871 37.9554 97.5241 36.2278 97.5241 33.4716C97.5241 31.3046 96.3058 30.1063 93.3499 29.4172L91.7621 29.0278C89.8847 28.5884 89.1257 27.9992 89.1257 26.9706C89.1257 25.6724 90.3041 24.8236 92.0716 24.8236C93.7493 24.8236 94.9077 25.6524 95.1174 26.9806H97.2944C97.1646 24.554 95.0275 22.8463 92.1016 22.8463C88.9559 22.8463 86.8588 24.554 86.8588 27.1204C86.8588 29.2375 88.0472 30.4957 90.6536 31.1049L92.511 31.5543C94.4184 32.0037 95.2572 32.6628 95.2572 33.7612C95.2572 35.0395 93.9391 35.9682 92.1415 35.9682C90.2142 35.9682 88.876 35.0994 88.6863 33.7313H86.4694Z" fill="white"/>
<path d="M65.0109 26.9402C63.5849 26.9402 62.3517 27.6532 61.7158 28.8479H61.5616V27.1136H59.5672V41.0937H61.6387V36.0162H61.8025C62.3517 37.1242 63.5368 37.7794 65.0302 37.7794C67.6797 37.7794 69.3658 35.6886 69.3658 32.355C69.3658 29.0213 67.6797 26.9402 65.0109 26.9402ZM64.4232 35.9198C62.6889 35.9198 61.6002 34.5517 61.6002 32.3646C61.6002 30.1678 62.6889 28.7997 64.4328 28.7997C66.1863 28.7997 67.2365 30.1389 67.2365 32.355C67.2365 34.5806 66.1863 35.9198 64.4232 35.9198Z" fill="white"/>
<path d="M76.6143 26.9402C75.1883 26.9402 73.9551 27.6532 73.3192 28.8479H73.165V27.1136H71.1706V41.0937H73.2421V36.0162H73.4059C73.9551 37.1242 75.1402 37.7794 76.6336 37.7794C79.2831 37.7794 80.9692 35.6886 80.9692 32.355C80.9692 29.0213 79.2831 26.9402 76.6143 26.9402ZM76.0266 35.9198C74.2923 35.9198 73.2036 34.5517 73.2036 32.3646C73.2036 30.1678 74.2923 28.7997 76.0362 28.7997C77.7897 28.7997 78.8399 30.1389 78.8399 32.355C78.8399 34.5806 77.7897 35.9198 76.0266 35.9198Z" fill="white"/>
<path d="M55.8506 37.6059H58.2273L53.0245 23.1958H50.6179L45.415 37.6059H47.7119L49.04 33.7812H54.5324L55.8506 37.6059ZM51.7063 25.8122H51.8761L53.9632 31.9038H49.6092L51.7063 25.8122Z" fill="white"/>
<defs>
<linearGradient id="paint0_linear_351_23547" x1="75" y1="1" x2="75" y2="53" gradientUnits="userSpaceOnUse">
<stop stop-color="white"/>
<stop offset="1" stop-color="white" stop-opacity="0"/>
</linearGradient>
</defs>
</svg>
