<svg width="24" height="24" viewBox="0 0 24 24" fill="none" xmlns="http://www.w3.org/2000/svg">
<path d="M19.7637 15.8453L19.0898 15.3401C18.8363 15.1505 18.6662 14.87 18.6152 14.5575L17.7706 9.43013C17.565 8.09583 16.8888 6.87911 15.8642 5.99999C14.8396 5.12086 13.5343 4.63734 12.1842 4.63684C10.8342 4.63635 9.52848 5.11891 8.50325 5.99729C7.47802 6.87567 6.8009 8.09189 6.59432 9.42604L5.74885 14.5577C5.69793 14.8699 5.52795 15.1502 5.27464 15.3397L4.59989 15.8453C4.34803 16.0343 4.16201 16.2977 4.06817 16.5982C3.97433 16.8987 3.97744 17.2212 4.07706 17.5199C4.17667 17.8185 4.36773 18.0783 4.62319 18.2623C4.87864 18.4464 5.18553 18.5454 5.50037 18.5453H18.8637C19.1785 18.5453 19.4853 18.4462 19.7407 18.2622C19.9961 18.0781 20.1871 17.8183 20.2866 17.5197C20.3862 17.221 20.3893 16.8986 20.2954 16.5981C20.2015 16.2976 20.0156 16.0342 19.7637 15.8453Z" fill="#14C99A"/>
<path d="M13.4095 5.6018C13.301 5.6018 13.197 5.5587 13.1202 5.48198C13.0435 5.40526 13.0004 5.30121 13.0004 5.19271V4.63635C13.0004 4.41936 12.9142 4.21125 12.7608 4.05782C12.6074 3.90438 12.3992 3.81818 12.1823 3.81818C11.9653 3.81818 11.7572 3.90438 11.6037 4.05782C11.4503 4.21125 11.3641 4.41936 11.3641 4.63635V5.19271C11.3641 5.30121 11.321 5.40526 11.2443 5.48198C11.1675 5.5587 11.0635 5.6018 10.955 5.6018C10.8465 5.6018 10.7424 5.5587 10.6657 5.48198C10.589 5.40526 10.5459 5.30121 10.5459 5.19271V4.63635C10.5459 4.20237 10.7183 3.78615 11.0252 3.47928C11.3321 3.1724 11.7483 3 12.1823 3C12.6162 3 13.0325 3.1724 13.3393 3.47928C13.6462 3.78615 13.8186 4.20237 13.8186 4.63635V5.19271C13.8186 5.30121 13.7755 5.40526 13.6988 5.48198C13.6221 5.5587 13.518 5.6018 13.4095 5.6018Z" fill="#14C99A"/>
<path d="M9.59863 19.3635C9.82997 19.853 10.1956 20.2667 10.653 20.5564C11.1103 20.8462 11.6406 21 12.182 21C12.7234 21 13.2537 20.8462 13.7111 20.5564C14.1684 20.2667 14.5341 19.853 14.7654 19.3635H9.59863Z" fill="#14C99A"/>
</svg>
