<svg width="23" height="23" viewBox="0 0 23 23" fill="none" xmlns="http://www.w3.org/2000/svg">
<path id="path2" fill-rule="evenodd" clip-rule="evenodd" d="M15.395 0.278467C15.2098 0.330817 15.0941 0.393233 14.9527 0.499022C14.6501 0.725273 14.158 1.23219 13.9013 1.52036L13.5541 1.86231C13.4597 1.94289 13.4642 1.95402 13.3846 2.03879L12.1707 3.24318C12.1084 3.31296 12.0614 3.35064 11.9957 3.41317C11.3464 4.03118 10.7377 4.69067 10.1049 5.32153L6.64632 8.7708C6.33892 9.11723 5.91973 9.47405 5.61276 9.80895L3.71009 11.7037C3.29526 12.0981 2.92031 12.531 2.50335 12.9154C2.40161 13.0092 2.2422 13.1657 2.15641 13.2594L0.948386 14.4678C0.64783 14.753 0.402353 14.9951 0.161798 15.4076C-0.0517703 15.7738 -0.0625907 16.1359 0.181411 16.4953C0.587885 17.094 0.910468 17.0113 1.52968 17.2248C1.69079 17.2803 1.88847 17.325 2.07726 17.3609C2.22178 17.3883 2.20644 17.4126 2.33677 17.4463C2.44604 17.4746 2.51953 17.4709 2.62816 17.5016L8.6105 19.1166C9.01063 19.2217 9.36849 19.2749 9.69642 19.4091L11.5876 19.9081C11.6866 19.9299 11.7549 19.9635 11.8544 19.9904C12.0311 20.0379 12.2384 20.0653 12.4135 20.1192C12.54 20.1581 12.5259 20.177 12.6673 20.2094C12.7421 20.2265 12.8538 20.2429 12.9505 20.2708L15.1242 20.8629C15.4661 20.945 15.8591 21.079 16.2103 21.1598C16.5375 21.2351 16.9942 21.327 17.3042 21.4435C17.5406 21.5323 17.8883 21.5651 18.1321 21.6573L19.7408 22.1138C19.882 22.1262 19.9058 22.1181 20.0336 22.173C20.1785 22.2353 20.4011 22.3105 20.5594 22.3302C20.9956 22.3842 21.3611 22.346 21.6419 22.1023C22.2414 21.5821 22.1229 21.189 21.9778 20.5987C21.9283 20.3972 21.8835 20.288 21.8427 20.0459C21.8214 19.9193 21.7357 19.6531 21.6897 19.51L21.4063 18.4152C21.3753 18.2689 21.2899 18.0558 21.2472 17.8824L21.0976 17.3384C21.0468 17.1445 21.022 16.9748 20.9612 16.7856L20.4508 14.8865C20.4218 14.7701 20.3955 14.7273 20.3671 14.6116C20.3182 14.4119 20.2941 14.2612 20.2302 14.0615C20.0576 13.5217 19.9303 12.9588 19.8078 12.4225C19.7819 12.3094 19.7799 12.2136 19.754 12.1151C19.7333 12.0366 19.6863 11.9567 19.662 11.8671L19.1312 9.98316C19.0915 9.8794 19.0905 9.81624 19.0647 9.69709L18.0371 5.89265C17.9191 5.36046 17.6927 4.7737 17.5979 4.26643C17.4757 3.61234 17.2162 2.71534 17.0295 2.06875C16.8476 1.43903 16.7541 0.489124 16.0241 0.304256C15.8391 0.257417 15.5746 0.227683 15.395 0.278467ZM3.57195 15.2394C3.66767 15.3329 4.30747 15.5119 4.48143 15.5514C4.66621 15.5933 4.77139 15.6474 4.96925 15.6895L5.94919 15.9398C6.4164 16.1057 7.7699 16.4177 8.39173 16.6039C8.84562 16.7399 8.83907 16.7538 9.36732 16.8755C9.39541 16.8819 11.981 17.5368 12.3046 17.657L16.234 18.6843C16.388 18.7375 16.5084 18.7898 16.7101 18.8318C17.1093 18.9148 16.9568 18.9039 17.2002 18.9687C17.3729 19.0146 17.5154 19.0349 17.6859 19.0795C17.7751 19.1028 17.8432 19.139 17.9237 19.1604C18.0088 19.183 18.1128 19.1946 18.1802 19.2127C18.3724 19.2641 19.0487 19.5269 19.1612 19.4016C19.2384 19.3203 19.1886 19.3245 19.1546 19.2192C19.0901 19.0197 19.0864 18.8671 18.9513 18.4786C18.9152 18.3748 18.924 18.3161 18.9014 18.2104C18.8643 18.0367 18.7564 17.8147 18.7016 17.4688C18.6755 17.3039 18.6434 17.344 18.5741 17.0029L17.6376 13.5692C17.6028 13.3977 17.567 13.2659 17.5197 13.098C17.4722 12.9297 17.439 12.7637 17.3882 12.607L17.1863 11.8627C17.1382 11.6981 17.1408 11.788 17.0999 11.6347L16.7168 10.1576C16.6729 9.98589 16.6402 9.82157 16.5951 9.65632C16.4814 9.23945 16.5868 9.38284 16.4007 8.94005C16.3646 8.85434 16.3552 8.78256 16.3368 8.69081C16.2507 8.2599 16.0746 7.75376 15.9596 7.21252C15.9234 7.04168 15.8529 6.88507 15.8212 6.72588L15.2932 4.73368C15.2545 4.59705 15.2053 4.41559 15.1556 4.25323C15.0879 4.03238 15.124 3.97846 14.9683 3.82799L5.70717 13.0743C5.35379 13.4437 3.64557 15.0849 3.57195 15.2394Z" fill="#14C99A"/>
</svg>
