<svg width="132" height="124" viewBox="0 0 132 124" fill="none" xmlns="http://www.w3.org/2000/svg">
<g id="Group 270988604">
<g id="Rectangle 1" filter="url(#filter0_bdiii_351_24668)">
<path d="M34 41C34 37.134 37.134 34 41 34H90C94.4183 34 98 37.5817 98 42V74.7187C98 79.1369 94.4182 82.7187 89.9999 82.7187C89.1263 82.7187 88.2652 82.7187 87.4154 82.7187C85.948 82.7187 85.745 90 84.3385 90C82.8755 90 80.2112 82.7187 78.8 82.7187C66.4219 82.7187 55.7623 82.7187 42 82.7187C37.5818 82.7187 34 79.137 34 74.7187V41Z" fill="url(#paint0_linear_351_24668)"/>
<path d="M34.05 41C34.05 37.1616 37.1616 34.05 41 34.05H90C94.3907 34.05 97.95 37.6093 97.95 42V74.7187C97.95 79.1093 94.3906 82.6687 89.9999 82.6687H89.9948H89.9897H89.9846H89.9795H89.9743H89.9692H89.9641H89.959H89.9539H89.9487H89.9436H89.9385H89.9334H89.9283H89.9232H89.9181H89.9129H89.9078H89.9027H89.8976H89.8925H89.8874H89.8823H89.8772H89.872H89.8669H89.8618H89.8567H89.8516H89.8465H89.8414H89.8363H89.8312H89.826H89.8209H89.8158H89.8107H89.8056H89.8005H89.7954H89.7903H89.7852H89.7801H89.775H89.7699H89.7648H89.7597H89.7546H89.7494H89.7443H89.7392H89.7341H89.729H89.7239H89.7188H89.7137H89.7086H89.7035H89.6984H89.6933H89.6882H89.6831H89.678H89.6729H89.6678H89.6627H89.6576H89.6525H89.6474H89.6423H89.6372H89.6321H89.627H89.6219H89.6168H89.6117H89.6066H89.6015H89.5964H89.5913H89.5862H89.5811H89.576H89.5709H89.5659H89.5608H89.5557H89.5506H89.5455H89.5404H89.5353H89.5302H89.5251H89.52H89.5149H89.5098H89.5047H89.4996H89.4946H89.4895H89.4844H89.4793H89.4742H89.4691H89.464H89.4589H89.4538H89.4488H89.4437H89.4386H89.4335H89.4284H89.4233H89.4182H89.4131H89.4081H89.403H89.3979H89.3928H89.3877H89.3826H89.3775H89.3725H89.3674H89.3623H89.3572H89.3521H89.347H89.342H89.3369H89.3318H89.3267H89.3216H89.3166H89.3115H89.3064H89.3013H89.2962H89.2912H89.2861H89.281H89.2759H89.2708H89.2658H89.2607H89.2556H89.2505H89.2454H89.2404H89.2353H89.2302H89.2251H89.2201H89.215H89.2099H89.2048H89.1998H89.1947H89.1896H89.1845H89.1795H89.1744H89.1693H89.1643H89.1592H89.1541H89.149H89.144H89.1389H89.1338H89.1287H89.1237H89.1186H89.1135H89.1085H89.1034H89.0983H89.0933H89.0882H89.0831H89.0781H89.073H89.0679H89.0629H89.0578H89.0527H89.0477H89.0426H89.0375H89.0325H89.0274H89.0223H89.0173H89.0122H89.0071H89.0021H88.997H88.9919H88.9869H88.9818H88.9768H88.9717H88.9666H88.9616H88.9565H88.9514H88.9464H88.9413H88.9363H88.9312H88.9261H88.9211H88.916H88.911H88.9059H88.9009H88.8958H88.8907H88.8857H88.8806H88.8756H88.8705H88.8655H88.8604H88.8553H88.8503H88.8452H88.8402H88.8351H88.8301H88.825H88.82H88.8149H88.8098H88.8048H88.7997H88.7947H88.7896H88.7846H88.7795H88.7745H88.7694H88.7644H88.7593H88.7543H88.7492H88.7442H88.7391H88.7341H88.729H88.724H88.7189H88.7139H88.7088H88.7038H88.6987H88.6937H88.6886H88.6836H88.6786H88.6735H88.6685H88.6634H88.6584H88.6533H88.6483H88.6432H88.6382H88.6331H88.6281H88.6231H88.618H88.613H88.6079H88.6029H88.5978H88.5928H88.5878H88.5827H88.5777H88.5726H88.5676H88.5626H88.5575H88.5525H88.5474H88.5424H88.5374H88.5323H88.5273H88.5223H88.5172H88.5122H88.5071H88.5021H88.4971H88.492H88.487H88.482H88.4769H88.4719H88.4669H88.4618H88.4568H88.4517H88.4467H88.4417H88.4366H88.4316H88.4266H88.4215H88.4165H88.4115H88.4065H88.4014H88.3964H88.3914H88.3863H88.3813H88.3763H88.3712H88.3662H88.3612H88.3561H88.3511H88.3461H88.3411H88.336H88.331H88.326H88.321H88.3159H88.3109H88.3059H88.3008H88.2958H88.2908H88.2858H88.2807H88.2757H88.2707H88.2657H88.2606H88.2556H88.2506H88.2456H88.2406H88.2355H88.2305H88.2255H88.2205H88.2154H88.2104H88.2054H88.2004H88.1954H88.1903H88.1853H88.1803H88.1753H88.1703H88.1652H88.1602H88.1552H88.1502H88.1452H88.1402H88.1351H88.1301H88.1251H88.1201H88.1151H88.1101H88.105H88.1H88.095H88.09H88.085H88.08H88.0749H88.0699H88.0649H88.0599H88.0549H88.0499H88.0449H88.0399H88.0348H88.0298H88.0248H88.0198H88.0148H88.0098H88.0048H87.9998H87.9948H87.9897H87.9847H87.9797H87.9747H87.9697H87.9647H87.9597H87.9547H87.9497H87.9447H87.9397H87.9347H87.9296H87.9246H87.9196H87.9146H87.9096H87.9046H87.8996H87.8946H87.8896H87.8846H87.8796H87.8746H87.8696H87.8646H87.8596H87.8546H87.8496H87.8446H87.8396H87.8346H87.8296H87.8246H87.8196H87.8146H87.8096H87.8046H87.7996H87.7946H87.7896H87.7846H87.7796H87.7746H87.7696H87.7646H87.7596H87.7546H87.7496H87.7446H87.7396H87.7346H87.7296H87.7246H87.7196H87.7146H87.7096H87.7046H87.6996H87.6946H87.6896H87.6847H87.6797H87.6747H87.6697H87.6647H87.6597H87.6547H87.6497H87.6447H87.6397H87.6347H87.6297H87.6248H87.6198H87.6148H87.6098H87.6048H87.5998H87.5948H87.5898H87.5848H87.5798H87.5749H87.5699H87.5649H87.5599H87.5549H87.5499H87.5449H87.54H87.535H87.53H87.525H87.52H87.515H87.51H87.5051H87.5001H87.4951H87.4901H87.4851H87.4801H87.4752H87.4702H87.4652H87.4602H87.4552H87.4502H87.4453H87.4403H87.4353H87.4303H87.4253H87.4204H87.4154C87.2089 82.6687 87.0323 82.7971 86.8795 83.0016C86.7264 83.2066 86.5906 83.4964 86.4664 83.8394C86.2177 84.5256 86.0101 85.4392 85.8053 86.3484L85.7927 86.4042C85.5918 87.2966 85.3928 88.1804 85.1591 88.8457C85.0397 89.1855 84.9126 89.4647 84.7737 89.658C84.6343 89.8521 84.4903 89.95 84.3385 89.95C84.1752 89.95 83.9856 89.8474 83.7722 89.6504C83.5605 89.4549 83.3333 89.1738 83.0953 88.8336C82.6194 88.1534 82.1064 87.2456 81.5934 86.3348L81.5649 86.2842C81.0621 85.3916 80.56 84.5002 80.0961 83.828C79.8599 83.4856 79.632 83.1978 79.4175 82.9952C79.2048 82.7943 78.9966 82.6687 78.8 82.6687H78.7275H78.655H78.5826H78.5102H78.4378H78.3655H78.2933H78.221H78.1488H78.0766H78.0045H77.9324H77.8604H77.7884H77.7164H77.6444H77.5725H77.5007H77.4288H77.357H77.2852H77.2135H77.1418H77.0702H76.9985H76.9269H76.8554H76.7838H76.7123H76.6409H76.5695H76.4981H76.4267H76.3554H76.2841H76.2128H76.1416H76.0704H75.9992H75.928H75.8569H75.7859H75.7148H75.6438H75.5728H75.5018H75.4309H75.36H75.2891H75.2183H75.1475H75.0767H75.0059H74.9352H74.8645H74.7938H74.7231H74.6525H74.5819H74.5114H74.4408H74.3703H74.2998H74.2293H74.1589H74.0885H74.0181H73.9477H73.8774H73.8071H73.7368H73.6665H73.5963H73.5261H73.4559H73.3857H73.3155H73.2454H73.1753H73.1052H73.0352H72.9651H72.8951H72.8251H72.7551H72.6852H72.6153H72.5454H72.4755H72.4056H72.3357H72.2659H72.1961H72.1263H72.0565H71.9868H71.917H71.8473H71.7776H71.7079H71.6383H71.5686H71.499H71.4294H71.3598H71.2902H71.2207H71.1511H71.0816H71.0121H70.9426H70.8731H70.8036H70.7342H70.6647H70.5953H70.5259H70.4565H70.3871H70.3178H70.2484H70.1791H70.1097H70.0404H69.9711H69.9018H69.8326H69.7633H69.6941H69.6248H69.5556H69.4864H69.4172H69.348H69.2788H69.2096H69.1404H69.0713H69.0021H68.933H68.8639H68.7947H68.7256H68.6565H68.5874H68.5183H68.4493H68.3802H68.3111H68.2421H68.173H68.104H68.0349H67.9659H67.8969H67.8279H67.7589H67.6899H67.6209H67.5519H67.4829H67.4139H67.3449H67.2759H67.207H67.138H67.069H67.0001H66.9311H66.8621H66.7932H66.7242H66.6553H66.5863H66.5174H66.4484H66.3795H66.3106H66.2416H66.1727H66.1037H66.0348H65.9659H65.8969H65.828H65.759H65.6901H65.6212H65.5522H65.4833H65.4143H65.3454H65.2764H65.2075H65.1385H65.0696H65.0006H64.9317H64.8627H64.7937H64.7247H64.6558H64.5868H64.5178H64.4488H64.3798H64.3108H64.2418H64.1728H64.1038H64.0348H63.9657H63.8967H63.8276H63.7586H63.6895H63.6205H63.5514H63.4823H63.4132H63.3441H63.275H63.2059H63.1368H63.0677H62.9985H62.9294H62.8602H62.7911H62.7219H62.6527H62.5835H62.5143H62.4451H62.3759H62.3066H62.2374H62.1681H62.0988H62.0295H61.9602H61.8909H61.8216H61.7523H61.6829H61.6135H61.5442H61.4748H61.4054H61.3359H61.2665H61.197H61.1276H61.0581H60.9886H60.9191H60.8496H60.78H60.7104H60.6409H60.5713H60.5017H60.432H60.3624H60.2927H60.223H60.1533H60.0836H60.0139H59.9441H59.8744H59.8046H59.7348H59.6649H59.5951H59.5252H59.4553H59.3854H59.3155H59.2455H59.1756H59.1056H59.0355H58.9655H58.8954H58.8254H58.7553H58.6851H58.615H58.5448H58.4746H58.4044H58.3342H58.2639H58.1936H58.1233H58.0529H57.9826H57.9122H57.8418H57.7713H57.7009H57.6304H57.5599H57.4893H57.4188H57.3482H57.2775H57.2069H57.1362H57.0655H56.9948H56.924H56.8532H56.7824H56.7116H56.6407H56.5698H56.4989H56.4279H56.3569H56.2859H56.2148H56.1438H56.0726H56.0015H55.9303H55.8591H55.7879H55.7166H55.6453H55.574H55.5026H55.4312H55.3598H55.2883H55.2168H55.1453H55.0738H55.0022H54.9305H54.8589H54.7872H54.7154H54.6437H54.5719H54.5H54.4282H54.3563H54.2843H54.2123H54.1403H54.0683H53.9962H53.924H53.8519H53.7797H53.7074H53.6352H53.5629H53.4905H53.4181H53.3457H53.2732H53.2007H53.1282H53.0556H52.9829H52.9103H52.8376H52.7648H52.692H52.6192H52.5463H52.4734H52.4005H52.3275H52.2544H52.1814H52.1082H52.0351H51.9619H51.8886H51.8153H51.742H51.6686H51.5952H51.5217H51.4482H51.3747H51.3011H51.2274H51.1537H51.08H51.0062H50.9324H50.8585H50.7846H50.7106H50.6366H50.5625H50.4884H50.4143H50.3401H50.2658H50.1915H50.1172H50.0428H49.9683H49.8939H49.8193H49.7447H49.6701H49.5954H49.5207H49.4459H49.371H49.2961H49.2212H49.1462H49.0712H48.9961H48.9209H48.8457H48.7705H48.6952H48.6198H48.5444H48.469H48.3934H48.3179H48.2423H48.1666H48.0909H48.0151H47.9392H47.8633H47.7874H47.7114H47.6353H47.5592H47.4831H47.4068H47.3306H47.2542H47.1778H47.1014H47.0249H46.9483H46.8717H46.795H46.7183H46.6415H46.5646H46.4877H46.4107H46.3337H46.2566H46.1795H46.1023H46.025H45.9477H45.8703H45.7928H45.7153H45.6378H45.5601H45.4824H45.4047H45.3269H45.249H45.1711H45.0931H45.015H44.9369H44.8587H44.7804H44.7021H44.6237H44.5453H44.4668H44.3882H44.3096H44.2309H44.1521H44.0733H43.9944H43.9154H43.8364H43.7573H43.6781H43.5989H43.5196H43.4402H43.3608H43.2813H43.2017H43.1221H43.0424H42.9626H42.8828H42.8029H42.7229H42.6429H42.5628H42.4826H42.4023H42.322H42.2416H42.1612H42.0806H42C37.6094 82.6687 34.05 79.1093 34.05 74.7187V41Z" stroke="url(#paint1_linear_351_24668)" stroke-width="0.1"/>
</g>
<g id="Ellipse 1" filter="url(#filter1_i_351_24668)">
<ellipse cx="2.83077" cy="3.04492" rx="2.83077" ry="3.04492" transform="matrix(-1 0 0 1 77.8145 55.9766)" fill="white" fill-opacity="0.2"/>
</g>
<g id="Ellipse 2" filter="url(#filter2_i_351_24668)">
<ellipse cx="2.83077" cy="3.04492" rx="2.83077" ry="3.04492" transform="matrix(-1 0 0 1 68.707 55.9766)" fill="white" fill-opacity="0.2"/>
</g>
<g id="Ellipse 3" filter="url(#filter3_i_351_24668)">
<ellipse cx="2.83077" cy="3.04492" rx="2.83077" ry="3.04492" transform="matrix(-1 0 0 1 59.5996 55.9766)" fill="white" fill-opacity="0.2"/>
</g>
</g>
<defs>
<filter id="filter0_bdiii_351_24668" x="0.700001" y="0.700001" width="130.6" height="122.6" filterUnits="userSpaceOnUse" color-interpolation-filters="sRGB">
<feFlood flood-opacity="0" result="BackgroundImageFix"/>
<feGaussianBlur in="BackgroundImageFix" stdDeviation="12.5"/>
<feComposite in2="SourceAlpha" operator="in" result="effect1_backgroundBlur_351_24668"/>
<feColorMatrix in="SourceAlpha" type="matrix" values="0 0 0 0 0 0 0 0 0 0 0 0 0 0 0 0 0 0 127 0" result="hardAlpha"/>
<feOffset/>
<feGaussianBlur stdDeviation="16.65"/>
<feComposite in2="hardAlpha" operator="out"/>
<feColorMatrix type="matrix" values="0 0 0 0 0.0800626 0 0 0 0 0.7875 0 0 0 0 0.602478 0 0 0 0.52 0"/>
<feBlend mode="normal" in2="effect1_backgroundBlur_351_24668" result="effect2_dropShadow_351_24668"/>
<feBlend mode="normal" in="SourceGraphic" in2="effect2_dropShadow_351_24668" result="shape"/>
<feColorMatrix in="SourceAlpha" type="matrix" values="0 0 0 0 0 0 0 0 0 0 0 0 0 0 0 0 0 0 127 0" result="hardAlpha"/>
<feOffset dy="-6"/>
<feGaussianBlur stdDeviation="2.6"/>
<feComposite in2="hardAlpha" operator="arithmetic" k2="-1" k3="1"/>
<feColorMatrix type="matrix" values="0 0 0 0 0 0 0 0 0 0 0 0 0 0 0 0 0 0 0.25 0"/>
<feBlend mode="normal" in2="shape" result="effect3_innerShadow_351_24668"/>
<feColorMatrix in="SourceAlpha" type="matrix" values="0 0 0 0 0 0 0 0 0 0 0 0 0 0 0 0 0 0 127 0" result="hardAlpha"/>
<feOffset dx="-6" dy="2"/>
<feGaussianBlur stdDeviation="3.75"/>
<feComposite in2="hardAlpha" operator="arithmetic" k2="-1" k3="1"/>
<feColorMatrix type="matrix" values="0 0 0 0 0 0 0 0 0 0 0 0 0 0 0 0 0 0 0.25 0"/>
<feBlend mode="normal" in2="effect3_innerShadow_351_24668" result="effect4_innerShadow_351_24668"/>
<feColorMatrix in="SourceAlpha" type="matrix" values="0 0 0 0 0 0 0 0 0 0 0 0 0 0 0 0 0 0 127 0" result="hardAlpha"/>
<feOffset dx="6" dy="5"/>
<feGaussianBlur stdDeviation="2.15"/>
<feComposite in2="hardAlpha" operator="arithmetic" k2="-1" k3="1"/>
<feColorMatrix type="matrix" values="0 0 0 0 1 0 0 0 0 1 0 0 0 0 1 0 0 0 0.16 0"/>
<feBlend mode="normal" in2="effect4_innerShadow_351_24668" result="effect5_innerShadow_351_24668"/>
</filter>
<filter id="filter1_i_351_24668" x="72.1533" y="55.9766" width="5.66113" height="10.0898" filterUnits="userSpaceOnUse" color-interpolation-filters="sRGB">
<feFlood flood-opacity="0" result="BackgroundImageFix"/>
<feBlend mode="normal" in="SourceGraphic" in2="BackgroundImageFix" result="shape"/>
<feColorMatrix in="SourceAlpha" type="matrix" values="0 0 0 0 0 0 0 0 0 0 0 0 0 0 0 0 0 0 127 0" result="hardAlpha"/>
<feOffset dy="4"/>
<feGaussianBlur stdDeviation="20"/>
<feComposite in2="hardAlpha" operator="arithmetic" k2="-1" k3="1"/>
<feColorMatrix type="matrix" values="0 0 0 0 1 0 0 0 0 1 0 0 0 0 1 0 0 0 0.14 0"/>
<feBlend mode="normal" in2="shape" result="effect1_innerShadow_351_24668"/>
</filter>
<filter id="filter2_i_351_24668" x="63.0459" y="55.9766" width="5.66113" height="10.0898" filterUnits="userSpaceOnUse" color-interpolation-filters="sRGB">
<feFlood flood-opacity="0" result="BackgroundImageFix"/>
<feBlend mode="normal" in="SourceGraphic" in2="BackgroundImageFix" result="shape"/>
<feColorMatrix in="SourceAlpha" type="matrix" values="0 0 0 0 0 0 0 0 0 0 0 0 0 0 0 0 0 0 127 0" result="hardAlpha"/>
<feOffset dy="4"/>
<feGaussianBlur stdDeviation="20"/>
<feComposite in2="hardAlpha" operator="arithmetic" k2="-1" k3="1"/>
<feColorMatrix type="matrix" values="0 0 0 0 1 0 0 0 0 1 0 0 0 0 1 0 0 0 0.14 0"/>
<feBlend mode="normal" in2="shape" result="effect1_innerShadow_351_24668"/>
</filter>
<filter id="filter3_i_351_24668" x="53.9385" y="55.9766" width="5.66113" height="10.0898" filterUnits="userSpaceOnUse" color-interpolation-filters="sRGB">
<feFlood flood-opacity="0" result="BackgroundImageFix"/>
<feBlend mode="normal" in="SourceGraphic" in2="BackgroundImageFix" result="shape"/>
<feColorMatrix in="SourceAlpha" type="matrix" values="0 0 0 0 0 0 0 0 0 0 0 0 0 0 0 0 0 0 127 0" result="hardAlpha"/>
<feOffset dy="4"/>
<feGaussianBlur stdDeviation="20"/>
<feComposite in2="hardAlpha" operator="arithmetic" k2="-1" k3="1"/>
<feColorMatrix type="matrix" values="0 0 0 0 1 0 0 0 0 1 0 0 0 0 1 0 0 0 0.14 0"/>
<feBlend mode="normal" in2="shape" result="effect1_innerShadow_351_24668"/>
</filter>
<linearGradient id="paint0_linear_351_24668" x1="84.1153" y1="95.2336" x2="34.6169" y2="34.867" gradientUnits="userSpaceOnUse">
<stop stop-color="#0A634C"/>
<stop offset="1" stop-color="#14C99A"/>
</linearGradient>
<linearGradient id="paint1_linear_351_24668" x1="35.2324" y1="36" x2="93.2324" y2="97.5" gradientUnits="userSpaceOnUse">
<stop stop-color="#14C99A"/>
<stop offset="1" stop-color="#0A634C"/>
</linearGradient>
</defs>
</svg>
