<svg width="150" height="54" viewBox="0 0 150 54" fill="none" xmlns="http://www.w3.org/2000/svg">
<rect x="1" y="1" width="148" height="52" rx="4" fill="#172531"/>
<rect x="0.5" y="0.5" width="149" height="53" rx="4.5" stroke="url(#paint0_linear_351_23552)" stroke-opacity="0.08"/>
<mask id="path-3-inside-1_351_23552" fill="white">
<path d="M75.1663 27.8861C72.8143 27.8861 70.8973 29.6751 70.8973 32.1391C70.8973 34.5881 72.8143 36.3921 75.1663 36.3921C77.5193 36.3921 79.4363 34.5881 79.4363 32.1391C79.4353 29.6751 77.5183 27.8861 75.1663 27.8861ZM75.1663 34.7181C73.8773 34.7181 72.7663 33.6551 72.7663 32.1401C72.7663 30.6091 73.8783 29.5621 75.1663 29.5621C76.4553 29.5621 77.5663 30.6091 77.5663 32.1401C77.5663 33.6541 76.4553 34.7181 75.1663 34.7181ZM65.8523 27.8861C63.5003 27.8861 61.5833 29.6751 61.5833 32.1391C61.5833 34.5881 63.5003 36.3921 65.8523 36.3921C68.2053 36.3921 70.1223 34.5881 70.1223 32.1391C70.1223 29.6751 68.2053 27.8861 65.8523 27.8861ZM65.8523 34.7181C64.5633 34.7181 63.4523 33.6551 63.4523 32.1401C63.4523 30.6091 64.5643 29.5621 65.8523 29.5621C67.1413 29.5621 68.2523 30.6091 68.2523 32.1401C68.2533 33.6541 67.1413 34.7181 65.8523 34.7181ZM54.7743 29.1921V30.9961H59.0923C58.9633 32.0111 58.6253 32.7521 58.1093 33.2671C57.4813 33.8951 56.4983 34.5881 54.7743 34.5881C52.1163 34.5881 50.0383 32.4451 50.0383 29.7871C50.0383 27.1291 52.1163 24.9861 54.7743 24.9861C56.2083 24.9861 57.2553 25.5501 58.0283 26.2751L59.3013 25.0021C58.2213 23.9711 56.7883 23.1821 54.7743 23.1821C51.1333 23.1821 48.0723 26.1461 48.0723 29.7871C48.0723 33.4281 51.1333 36.3921 54.7743 36.3921C56.7393 36.3921 58.2223 35.7471 59.3813 34.5391C60.5733 33.3471 60.9443 31.6711 60.9443 30.3181C60.9443 29.9001 60.9123 29.5131 60.8473 29.1911H54.7743V29.1921ZM100.082 30.5931C99.7283 29.6431 98.6483 27.8861 96.4413 27.8861C94.2503 27.8861 92.4293 29.6101 92.4293 32.1391C92.4293 34.5231 94.2343 36.3921 96.6503 36.3921C98.5993 36.3921 99.7273 35.2001 100.195 34.5071L98.7453 33.5401C98.2623 34.2491 97.6013 34.7161 96.6503 34.7161C95.7003 34.7161 95.0233 34.2811 94.5883 33.4271L100.275 31.0751L100.082 30.5931ZM94.2823 32.0111C94.2343 30.3671 95.5553 29.5301 96.5063 29.5301C97.2473 29.5301 97.8753 29.9011 98.0853 30.4321L94.2823 32.0111ZM89.6593 36.1351H91.5273V23.6341H89.6593V36.1351ZM86.5973 28.8371H86.5333C86.1143 28.3371 85.3083 27.8861 84.2943 27.8861C82.1673 27.8861 80.2183 29.7551 80.2183 32.1561C80.2183 34.5401 82.1673 36.3931 84.2943 36.3931C85.3093 36.3931 86.1143 35.9421 86.5333 35.4271H86.5973V36.0391C86.5973 37.6661 85.7273 38.5361 84.3263 38.5361C83.1823 38.5361 82.4733 37.7151 82.1833 37.0221L80.5563 37.6991C81.0233 38.8261 82.2633 40.2121 84.3263 40.2121C86.5173 40.2121 88.3703 38.9231 88.3703 35.7811V28.1451H86.5983V28.8371H86.5973ZM84.4553 34.7181C83.1663 34.7181 82.0873 33.6381 82.0873 32.1561C82.0873 30.6571 83.1663 29.5621 84.4553 29.5621C85.7273 29.5621 86.7263 30.6571 86.7263 32.1561C86.7263 33.6381 85.7273 34.7181 84.4553 34.7181ZM108.836 23.6341H104.365V36.1351H106.23V31.3991H108.835C110.903 31.3991 112.937 29.9021 112.937 27.5171C112.937 25.1321 110.904 23.6341 108.836 23.6341ZM108.884 29.6591H106.23V25.3741H108.884C110.279 25.3741 111.071 26.5291 111.071 27.5171C111.071 28.4851 110.279 29.6591 108.884 29.6591ZM120.416 27.8641C119.065 27.8641 117.666 28.4591 117.087 29.7781L118.743 30.4691C119.097 29.7781 119.757 29.5521 120.448 29.5521C121.413 29.5521 122.394 30.1311 122.41 31.1601V31.2891C122.072 31.0961 121.348 30.8071 120.464 30.8071C118.679 30.8071 116.861 31.7881 116.861 33.6211C116.861 35.2941 118.325 36.3711 119.965 36.3711C121.219 36.3711 121.911 35.8081 122.345 35.1481H122.409V36.1131H124.211V31.3201C124.212 29.1021 122.554 27.8641 120.416 27.8641ZM120.19 34.7151C119.58 34.7151 118.727 34.4091 118.727 33.6531C118.727 32.6881 119.789 32.3181 120.706 32.3181C121.525 32.3181 121.912 32.4951 122.41 32.7361C122.265 33.8951 121.268 34.7151 120.19 34.7151ZM130.773 28.1371L128.634 33.5571H128.57L126.35 28.1371H124.34L127.669 35.7121L125.771 39.9261H127.717L132.848 28.1371H130.773ZM113.967 36.1351H115.832V23.6341H113.967V36.1351Z"/>
</mask>
<path d="M75.1663 27.8861C72.8143 27.8861 70.8973 29.6751 70.8973 32.1391C70.8973 34.5881 72.8143 36.3921 75.1663 36.3921C77.5193 36.3921 79.4363 34.5881 79.4363 32.1391C79.4353 29.6751 77.5183 27.8861 75.1663 27.8861ZM75.1663 34.7181C73.8773 34.7181 72.7663 33.6551 72.7663 32.1401C72.7663 30.6091 73.8783 29.5621 75.1663 29.5621C76.4553 29.5621 77.5663 30.6091 77.5663 32.1401C77.5663 33.6541 76.4553 34.7181 75.1663 34.7181ZM65.8523 27.8861C63.5003 27.8861 61.5833 29.6751 61.5833 32.1391C61.5833 34.5881 63.5003 36.3921 65.8523 36.3921C68.2053 36.3921 70.1223 34.5881 70.1223 32.1391C70.1223 29.6751 68.2053 27.8861 65.8523 27.8861ZM65.8523 34.7181C64.5633 34.7181 63.4523 33.6551 63.4523 32.1401C63.4523 30.6091 64.5643 29.5621 65.8523 29.5621C67.1413 29.5621 68.2523 30.6091 68.2523 32.1401C68.2533 33.6541 67.1413 34.7181 65.8523 34.7181ZM54.7743 29.1921V30.9961H59.0923C58.9633 32.0111 58.6253 32.7521 58.1093 33.2671C57.4813 33.8951 56.4983 34.5881 54.7743 34.5881C52.1163 34.5881 50.0383 32.4451 50.0383 29.7871C50.0383 27.1291 52.1163 24.9861 54.7743 24.9861C56.2083 24.9861 57.2553 25.5501 58.0283 26.2751L59.3013 25.0021C58.2213 23.9711 56.7883 23.1821 54.7743 23.1821C51.1333 23.1821 48.0723 26.1461 48.0723 29.7871C48.0723 33.4281 51.1333 36.3921 54.7743 36.3921C56.7393 36.3921 58.2223 35.7471 59.3813 34.5391C60.5733 33.3471 60.9443 31.6711 60.9443 30.3181C60.9443 29.9001 60.9123 29.5131 60.8473 29.1911H54.7743V29.1921ZM100.082 30.5931C99.7283 29.6431 98.6483 27.8861 96.4413 27.8861C94.2503 27.8861 92.4293 29.6101 92.4293 32.1391C92.4293 34.5231 94.2343 36.3921 96.6503 36.3921C98.5993 36.3921 99.7273 35.2001 100.195 34.5071L98.7453 33.5401C98.2623 34.2491 97.6013 34.7161 96.6503 34.7161C95.7003 34.7161 95.0233 34.2811 94.5883 33.4271L100.275 31.0751L100.082 30.5931ZM94.2823 32.0111C94.2343 30.3671 95.5553 29.5301 96.5063 29.5301C97.2473 29.5301 97.8753 29.9011 98.0853 30.4321L94.2823 32.0111ZM89.6593 36.1351H91.5273V23.6341H89.6593V36.1351ZM86.5973 28.8371H86.5333C86.1143 28.3371 85.3083 27.8861 84.2943 27.8861C82.1673 27.8861 80.2183 29.7551 80.2183 32.1561C80.2183 34.5401 82.1673 36.3931 84.2943 36.3931C85.3093 36.3931 86.1143 35.9421 86.5333 35.4271H86.5973V36.0391C86.5973 37.6661 85.7273 38.5361 84.3263 38.5361C83.1823 38.5361 82.4733 37.7151 82.1833 37.0221L80.5563 37.6991C81.0233 38.8261 82.2633 40.2121 84.3263 40.2121C86.5173 40.2121 88.3703 38.9231 88.3703 35.7811V28.1451H86.5983V28.8371H86.5973ZM84.4553 34.7181C83.1663 34.7181 82.0873 33.6381 82.0873 32.1561C82.0873 30.6571 83.1663 29.5621 84.4553 29.5621C85.7273 29.5621 86.7263 30.6571 86.7263 32.1561C86.7263 33.6381 85.7273 34.7181 84.4553 34.7181ZM108.836 23.6341H104.365V36.1351H106.23V31.3991H108.835C110.903 31.3991 112.937 29.9021 112.937 27.5171C112.937 25.1321 110.904 23.6341 108.836 23.6341ZM108.884 29.6591H106.23V25.3741H108.884C110.279 25.3741 111.071 26.5291 111.071 27.5171C111.071 28.4851 110.279 29.6591 108.884 29.6591ZM120.416 27.8641C119.065 27.8641 117.666 28.4591 117.087 29.7781L118.743 30.4691C119.097 29.7781 119.757 29.5521 120.448 29.5521C121.413 29.5521 122.394 30.1311 122.41 31.1601V31.2891C122.072 31.0961 121.348 30.8071 120.464 30.8071C118.679 30.8071 116.861 31.7881 116.861 33.6211C116.861 35.2941 118.325 36.3711 119.965 36.3711C121.219 36.3711 121.911 35.8081 122.345 35.1481H122.409V36.1131H124.211V31.3201C124.212 29.1021 122.554 27.8641 120.416 27.8641ZM120.19 34.7151C119.58 34.7151 118.727 34.4091 118.727 33.6531C118.727 32.6881 119.789 32.3181 120.706 32.3181C121.525 32.3181 121.912 32.4951 122.41 32.7361C122.265 33.8951 121.268 34.7151 120.19 34.7151ZM130.773 28.1371L128.634 33.5571H128.57L126.35 28.1371H124.34L127.669 35.7121L125.771 39.9261H127.717L132.848 28.1371H130.773ZM113.967 36.1351H115.832V23.6341H113.967V36.1351Z" fill="black" stroke="white" stroke-width="2" mask="url(#path-3-inside-1_351_23552)"/>
<path d="M54.4478 16.378C54.4478 17.216 54.1998 17.883 53.7028 18.381C53.1388 18.973 52.4028 19.269 51.4988 19.269C50.6328 19.269 49.8958 18.969 49.2908 18.369C48.6848 17.768 48.3818 17.024 48.3818 16.136C48.3818 15.247 48.6848 14.503 49.2908 13.903C49.8958 13.302 50.6328 13.002 51.4988 13.002C51.9288 13.002 52.3398 13.086 52.7298 13.253C53.1208 13.421 53.4338 13.644 53.6678 13.923L53.1408 14.451C52.7438 13.976 52.1968 13.739 51.4978 13.739C50.8658 13.739 50.3198 13.961 49.8588 14.405C49.3978 14.849 49.1678 15.426 49.1678 16.135C49.1678 16.844 49.3978 17.421 49.8588 17.865C50.3198 18.309 50.8658 18.531 51.4978 18.531C52.1678 18.531 52.7268 18.308 53.1738 17.861C53.4638 17.57 53.6318 17.165 53.6768 16.646H51.4978V15.925H54.4048C54.4348 16.082 54.4478 16.233 54.4478 16.378Z" fill="white"/>
<path d="M59.0579 13.872H56.3259V15.774H58.7899V16.495H56.3259V18.397H59.0579V19.135H55.5549V13.135H59.0579V13.872Z" fill="white"/>
<path d="M62.3088 19.135H61.5378V13.872H59.8618V13.135H63.9848V13.872H62.3088V19.135Z" fill="white"/>
<path d="M66.9678 19.135V13.135H67.7388V19.135H66.9678Z" fill="white"/>
<path d="M71.1579 19.135H70.3869V13.872H68.7109V13.135H72.8339V13.872H71.1579V19.135Z" fill="white"/>
<path d="M80.6387 18.36C80.0487 18.966 79.3157 19.269 78.4387 19.269C77.5617 19.269 76.8287 18.966 76.2397 18.36C75.6497 17.754 75.3557 17.012 75.3557 16.135C75.3557 15.258 75.6497 14.516 76.2397 13.91C76.8287 13.304 77.5617 13 78.4387 13C79.3107 13 80.0427 13.305 80.6347 13.914C81.2267 14.523 81.5227 15.263 81.5227 16.135C81.5227 17.012 81.2277 17.754 80.6387 18.36ZM76.8087 17.857C77.2527 18.307 77.7957 18.531 78.4387 18.531C79.0817 18.531 79.6257 18.306 80.0687 17.857C80.5127 17.407 80.7357 16.833 80.7357 16.135C80.7357 15.437 80.5127 14.863 80.0687 14.413C79.6257 13.963 79.0817 13.739 78.4387 13.739C77.7957 13.739 77.2527 13.964 76.8087 14.413C76.3657 14.863 76.1427 15.437 76.1427 16.135C76.1427 16.833 76.3657 17.407 76.8087 17.857Z" fill="white"/>
<path d="M82.6047 19.135V13.135H83.5427L86.4587 17.802H86.4917L86.4587 16.646V13.135H87.2297V19.135H86.4247L83.3737 14.241H83.3407L83.3737 15.397V19.135H82.6047Z" fill="white"/>
<path d="M54.4478 16.378C54.4478 17.216 54.1998 17.883 53.7028 18.381C53.1388 18.973 52.4028 19.269 51.4988 19.269C50.6328 19.269 49.8958 18.969 49.2908 18.369C48.6848 17.768 48.3818 17.024 48.3818 16.136C48.3818 15.247 48.6848 14.503 49.2908 13.903C49.8958 13.302 50.6328 13.002 51.4988 13.002C51.9288 13.002 52.3398 13.086 52.7298 13.253C53.1208 13.421 53.4338 13.644 53.6678 13.923L53.1408 14.451C52.7438 13.976 52.1968 13.739 51.4978 13.739C50.8658 13.739 50.3198 13.961 49.8588 14.405C49.3978 14.849 49.1678 15.426 49.1678 16.135C49.1678 16.844 49.3978 17.421 49.8588 17.865C50.3198 18.309 50.8658 18.531 51.4978 18.531C52.1678 18.531 52.7268 18.308 53.1738 17.861C53.4638 17.57 53.6318 17.165 53.6768 16.646H51.4978V15.925H54.4048C54.4348 16.082 54.4478 16.233 54.4478 16.378Z" stroke="white" stroke-width="0.2" stroke-miterlimit="10"/>
<path d="M59.0579 13.872H56.3259V15.774H58.7899V16.495H56.3259V18.397H59.0579V19.135H55.5549V13.135H59.0579V13.872Z" stroke="white" stroke-width="0.2" stroke-miterlimit="10"/>
<path d="M62.3088 19.135H61.5378V13.872H59.8618V13.135H63.9848V13.872H62.3088V19.135Z" stroke="white" stroke-width="0.2" stroke-miterlimit="10"/>
<path d="M66.9678 19.135V13.135H67.7388V19.135H66.9678Z" stroke="white" stroke-width="0.2" stroke-miterlimit="10"/>
<path d="M71.1579 19.135H70.3869V13.872H68.7109V13.135H72.8339V13.872H71.1579V19.135Z" stroke="white" stroke-width="0.2" stroke-miterlimit="10"/>
<path d="M80.6387 18.36C80.0487 18.966 79.3157 19.269 78.4387 19.269C77.5617 19.269 76.8287 18.966 76.2397 18.36C75.6497 17.754 75.3557 17.012 75.3557 16.135C75.3557 15.258 75.6497 14.516 76.2397 13.91C76.8287 13.304 77.5617 13 78.4387 13C79.3107 13 80.0427 13.305 80.6347 13.914C81.2267 14.523 81.5227 15.263 81.5227 16.135C81.5227 17.012 81.2277 17.754 80.6387 18.36ZM76.8087 17.857C77.2527 18.307 77.7957 18.531 78.4387 18.531C79.0817 18.531 79.6257 18.306 80.0687 17.857C80.5127 17.407 80.7357 16.833 80.7357 16.135C80.7357 15.437 80.5127 14.863 80.0687 14.413C79.6257 13.963 79.0817 13.739 78.4387 13.739C77.7957 13.739 77.2527 13.964 76.8087 14.413C76.3657 14.863 76.1427 15.437 76.1427 16.135C76.1427 16.833 76.3657 17.407 76.8087 17.857Z" stroke="white" stroke-width="0.2" stroke-miterlimit="10"/>
<path d="M82.6047 19.135V13.135H83.5427L86.4587 17.802H86.4917L86.4587 16.646V13.135H87.2297V19.135H86.4247L83.3737 14.241H83.3407L83.3737 15.397V19.135H82.6047Z" stroke="white" stroke-width="0.2" stroke-miterlimit="10"/>
<path fill-rule="evenodd" clip-rule="evenodd" d="M32.8848 20.3674L21.3632 13.6857C20.9281 13.4251 20.4203 13.2747 19.8769 13.2747C18.7558 13.2747 17.7698 13.9539 17.2969 14.9035L17.3835 14.9901L27.8235 25.4278L32.8848 20.3674ZM17.003 16.0237C17.001 16.066 17 16.1086 17 16.1512V36.1188C17 36.1615 17.001 36.2039 17.003 36.2462L27.1163 26.1349L17.003 16.0237ZM17.2969 37.3664C17.7699 38.316 18.756 38.9953 19.8769 38.9953C20.4086 38.9953 20.9078 38.8516 21.3359 38.5992L21.3699 38.5793L32.9046 31.9219L27.8235 26.8419L17.3835 37.2799L17.2969 37.3664ZM33.8014 31.4044L38.4984 28.6934C39.4007 28.2063 40.0132 27.2551 40.0132 26.1582C40.0132 25.0692 39.4089 24.1227 38.5156 23.634L38.5054 23.627L33.78 20.8866L28.5307 26.1348L33.8014 31.4044Z" fill="white"/>
<defs>
<linearGradient id="paint0_linear_351_23552" x1="75" y1="1" x2="75" y2="53" gradientUnits="userSpaceOnUse">
<stop stop-color="white"/>
<stop offset="1" stop-color="white" stop-opacity="0"/>
</linearGradient>
</defs>
</svg>
