<svg width="24" height="24" viewBox="0 0 24 24" fill="none" xmlns="http://www.w3.org/2000/svg">
<path d="M21.4783 10.4327L20.093 10.1557C19.9406 9.65048 19.7386 9.16272 19.4898 8.69885L20.2733 7.52363C20.4205 7.30283 20.3914 7.00885 20.2038 6.82126L18.1046 4.72202C17.9169 4.5344 17.6229 4.5053 17.4022 4.65244L16.2269 5.43593C15.7631 5.18715 15.2753 4.9852 14.7701 4.83276L14.4931 3.44746C14.4411 3.18729 14.2126 3 13.9473 3H10.9785C10.7132 3 10.4847 3.18729 10.4327 3.44746L10.1557 4.83276C9.65045 4.9852 9.16268 5.18719 8.69885 5.43593L7.52356 4.65244C7.30283 4.5053 7.00881 4.5344 6.82119 4.72202L4.72199 6.82126C4.53432 7.00889 4.50523 7.30287 4.65244 7.52363L5.43593 8.69885C5.18712 9.16272 4.98517 9.65048 4.83272 10.1557L3.44746 10.4327C3.18729 10.4847 3 10.7132 3 10.9785V13.9473C3 14.2126 3.18729 14.4411 3.4475 14.4931L4.83276 14.7701C4.98517 15.2753 5.18715 15.763 5.43597 16.2269L4.65248 17.4021C4.50527 17.6229 4.5344 17.9169 4.72202 18.1045L6.82123 20.2037C7.00889 20.3914 7.30283 20.4205 7.5236 20.2733L8.6748 19.5059V16.0115C7.80303 15.0836 7.26758 13.8369 7.26758 12.4629C7.26758 9.59359 9.59359 7.26758 12.4629 7.26758C15.3322 7.26758 17.6582 9.59359 17.6582 12.4629C17.6582 13.8369 17.1228 15.0836 16.251 16.0115V19.5059L17.4022 20.2733C17.4964 20.3361 17.6039 20.3668 17.7107 20.3668C17.8544 20.3668 17.997 20.3113 18.1045 20.2038L20.2037 18.1046C20.3913 17.9169 20.4205 17.6229 20.2733 17.4022L19.4898 16.2269C19.7386 15.7631 19.9405 15.2753 20.093 14.7702L21.4782 14.4931C21.7385 14.4411 21.9258 14.2126 21.9258 13.9473V10.9785C21.9258 10.7132 21.7385 10.4847 21.4783 10.4327Z" fill="#14C99A"/>
<path d="M14.2263 9.41298C13.9462 9.2507 13.5907 9.42288 13.5444 9.74329L13.2051 12.0919H11.7207L11.3814 9.74329C11.3351 9.42288 10.9797 9.2507 10.6995 9.41298C9.61263 10.0425 8.9375 11.2113 8.9375 12.463C8.9375 13.8194 9.69713 15.0328 10.9199 15.6296L10.9785 15.6582V21.4434C10.9785 21.7508 11.2277 22.0001 11.5352 22.0001H13.3906C13.698 22.0001 13.9473 21.7508 13.9473 21.4434V15.6582L14.0059 15.6296C15.2287 15.0328 15.9883 13.8194 15.9883 12.463C15.9883 11.2113 15.3132 10.0425 14.2263 9.41298Z" fill="#14C99A"/>
</svg>
